<?xml version="1.0" standalone="no"?>
<!DOCTYPE svg PUBLIC "-//W3C//DTD SVG 20010904//EN"
 "http://www.w3.org/TR/2001/REC-SVG-20010904/DTD/svg10.dtd">
<svg version="1.0" xmlns="http://www.w3.org/2000/svg"
 width="1000.000000pt" height="1000.000000pt" viewBox="0 0 1000.000000 1000.000000"
 preserveAspectRatio="xMidYMid meet">
<metadata>
Created by potrace 1.14, written by Peter Selinger 2001-2017
</metadata>
<g transform="translate(0.000000,1000.000000) scale(0.100000,-0.100000)"
fill="#000000" stroke="none">
<path d="M7820 8100 c-25 -4 -65 -10 -90 -13 -25 -3 -67 -11 -95 -16 -27 -6
-61 -13 -75 -15 -14 -3 -25 -5 -25 -6 0 -1 -7 -3 -15 -5 -8 -1 -49 -10 -90
-19 -41 -9 -84 -18 -95 -21 -11 -2 -35 -8 -52 -14 -18 -5 -33 -8 -33 -6 0 3
-11 0 -25 -5 -14 -5 -36 -12 -48 -15 -38 -8 -251 -66 -267 -72 -20 -8 -20 -8
-55 -18 -16 -4 -34 -11 -40 -15 -5 -4 -25 -11 -43 -15 -44 -9 -195 -75 -261
-115 -62 -36 -114 -88 -141 -140 -28 -55 -43 -101 -146 -458 -38 -133 -38
-130 -29 -212 7 -60 -6 -89 -40 -94 -20 -3 -35 -43 -70 -186 -2 -8 -4 -15 -5
-15 -1 0 -3 -7 -5 -15 -2 -8 -15 -58 -29 -110 -15 -52 -28 -102 -30 -110 -8
-29 -54 -206 -70 -262 -8 -31 -18 -67 -20 -80 -3 -12 -15 -57 -26 -98 -11 -41
-22 -84 -24 -95 -2 -11 -18 -76 -35 -145 -18 -69 -33 -132 -36 -140 -7 -28
-37 -162 -40 -179 -2 -9 -4 -16 -5 -16 -1 0 -3 -8 -5 -19 -2 -10 -9 -39 -15
-65 -6 -25 -12 -55 -14 -66 -3 -11 -14 -60 -26 -110 -29 -119 -28 -117 -29
-138 -1 -14 -8 -18 -29 -16 -15 2 -32 1 -37 -1 -6 -3 -160 -5 -343 -5 -287 0
-333 -2 -336 -15 -7 -23 -19 -83 -22 -105 -1 -11 -3 -20 -4 -20 -1 0 -3 -11
-6 -25 -2 -14 -8 -47 -14 -75 -5 -27 -12 -70 -15 -95 -4 -24 -9 -48 -11 -52
-5 -7 38 -13 61 -8 5 1 17 1 25 1 8 0 155 -2 325 -4 299 -3 310 -4 308 -23 -4
-36 -20 -119 -23 -119 -2 0 -6 -20 -23 -125 -6 -33 -26 -138 -32 -170 -3 -14
-8 -41 -11 -60 -2 -19 -6 -42 -9 -50 -2 -8 -7 -35 -10 -60 -3 -25 -8 -52 -11
-61 -3 -10 -6 -30 -9 -45 -2 -16 -6 -44 -9 -61 -8 -44 -13 -76 -25 -153 -6
-36 -13 -83 -17 -105 -4 -22 -8 -49 -9 -60 -1 -11 -4 -38 -8 -60 -19 -120 -20
-116 11 -109 15 3 36 8 47 11 11 4 29 7 40 9 37 5 179 65 264 110 121 66 152
49 145 -79 -8 -136 -107 -255 -286 -344 -69 -34 -191 -78 -242 -87 -16 -3 -30
-7 -32 -9 -14 -13 -22 -316 -10 -367 4 -14 8 -37 11 -53 8 -41 50 -130 86
-184 38 -54 148 -163 166 -163 6 0 13 -3 15 -7 9 -22 159 -103 258 -140 30
-12 64 -25 75 -29 11 -4 23 -8 28 -9 4 -2 8 -3 10 -4 1 -2 13 -5 27 -7 14 -3
41 -9 61 -14 117 -32 232 -44 404 -44 126 1 281 10 295 19 4 2 27 7 51 10 24
3 51 7 59 10 8 2 26 6 40 9 51 9 212 55 260 73 8 4 17 7 20 8 26 8 107 45 159
73 139 73 243 157 301 244 47 71 62 120 65 211 3 79 -8 90 -54 58 -16 -12 -31
-21 -34 -21 -2 0 -36 -18 -76 -39 -39 -22 -71 -37 -71 -35 0 2 -15 -3 -32 -12
-52 -27 -217 -84 -298 -104 -181 -44 -297 -55 -545 -54 -203 1 -277 11 -360
49 -27 12 -115 88 -115 98 0 3 -8 22 -17 43 -9 22 -17 44 -19 49 -1 6 -7 29
-13 53 -19 68 -25 162 -25 397 0 200 7 398 19 530 2 28 7 82 10 120 3 39 7 86
10 105 2 19 6 62 9 95 4 33 8 74 11 90 7 42 13 92 20 150 5 51 11 92 20 145 3
17 7 42 9 58 12 74 18 109 22 132 2 14 7 41 10 60 3 19 8 49 11 65 9 50 4 74
-29 144 -46 92 -68 103 -217 108 -98 4 -118 7 -132 23 -25 29 -18 109 17 186
22 49 31 53 139 69 104 15 172 32 278 72 41 15 72 33 79 46 6 12 11 23 10 25
-1 1 -2 3 -1 5 0 1 3 16 5 32 3 17 9 41 14 55 5 14 12 36 14 50 6 36 74 294
96 365 10 33 26 87 36 120 10 33 19 62 19 65 14 68 271 832 305 905 5 11 23
54 39 95 16 41 40 101 55 133 14 31 24 58 24 60 -2 3 73 141 99 185 49 79 146
160 278 232 79 43 283 131 335 145 3 1 12 4 20 8 82 32 167 58 275 84 52 12
114 24 160 29 28 4 54 8 58 11 24 14 -26 204 -63 238 -45 41 -168 56 -290 35z"/>
<path d="M3737 7474 c-1 -1 -49 -5 -107 -9 -58 -4 -123 -8 -145 -10 -199 -17
-563 -33 -1176 -50 -364 -10 -358 -9 -386 -37 -39 -39 -34 -138 13 -296 l25
-83 57 6 c31 3 66 8 77 10 75 16 341 36 545 41 153 4 238 -9 286 -44 50 -36
75 -123 77 -263 1 -54 1 -56 26 -53 84 10 212 12 245 4 72 -16 96 -67 75 -159
-5 -23 -12 -58 -15 -79 -3 -20 -8 -40 -10 -43 -2 -4 -6 -22 -9 -40 -3 -19 -12
-61 -21 -94 -8 -33 -16 -69 -18 -80 -2 -11 -4 -20 -6 -20 -1 0 -3 -9 -5 -20
-2 -11 -5 -29 -8 -40 -3 -11 -11 -42 -17 -70 -17 -75 -18 -77 -29 -112 -5 -18
-7 -33 -4 -33 3 0 0 -7 -7 -15 -7 -8 -10 -15 -7 -15 3 0 1 -15 -4 -32 -6 -18
-12 -44 -15 -58 -3 -14 -16 -68 -30 -120 -25 -93 -42 -160 -49 -190 -2 -8 -15
-64 -29 -124 -14 -59 -28 -120 -31 -135 -3 -14 -14 -60 -25 -101 -10 -41 -15
-77 -10 -80 4 -3 86 -5 181 -5 l173 0 43 175 c24 96 46 186 48 200 2 14 7 34
9 45 18 69 48 194 52 215 3 14 9 39 14 55 5 17 12 41 14 55 3 14 10 43 16 65
6 22 12 47 14 55 2 8 36 143 76 300 39 157 73 295 73 307 1 13 5 23 8 23 3 0
6 6 6 13 1 16 10 58 17 77 3 8 8 26 10 40 7 34 9 42 54 235 23 94 43 181 45
195 3 14 12 56 21 93 9 37 18 82 21 100 2 18 8 55 13 83 11 63 2 87 -35 102
-24 10 -129 22 -136 16z"/>
<path d="M5845 7053 c-162 -29 -173 -31 -193 -37 -9 -3 -28 -7 -42 -10 -64
-13 -359 -95 -400 -112 -3 -1 -16 -5 -30 -10 -14 -4 -61 -26 -105 -48 -110
-57 -130 -86 -188 -277 -64 -212 -228 -804 -253 -911 -9 -41 -14 -59 -43 -175
-41 -161 -101 -421 -106 -455 -2 -15 -6 -32 -9 -37 -3 -5 -66 -10 -139 -11
-296 -5 -1365 2 -1409 9 -3 1 0 21 7 45 8 24 16 57 19 73 2 15 20 91 39 168
19 77 45 185 57 240 12 55 26 107 30 115 5 9 15 47 23 85 9 39 30 126 47 195
17 69 32 132 34 140 2 8 9 35 16 60 7 25 14 54 16 65 2 11 7 34 11 50 4 17 7
32 8 35 1 3 4 19 8 35 4 17 10 40 12 53 3 12 7 30 9 40 2 9 11 51 20 92 31
149 30 152 -14 168 -25 9 -121 8 -220 -2 -30 -3 -104 -8 -165 -11 -113 -6
-172 -9 -520 -21 -415 -14 -370 -10 -389 -29 -17 -17 -16 -86 4 -171 17 -78
25 -84 90 -73 139 23 448 39 510 26 42 -8 74 -27 94 -55 17 -22 20 -43 20
-151 0 -111 -8 -242 -18 -297 -2 -11 -7 -41 -10 -69 -14 -111 -17 -132 -31
-212 -31 -189 -48 -290 -51 -307 -2 -12 -7 -36 -10 -55 -7 -43 -11 -64 -25
-131 -6 -30 -12 -62 -14 -70 -2 -13 -26 -15 -149 -15 -167 0 -170 -1 -162 -76
7 -70 36 -126 94 -185 31 -31 39 -34 93 -34 56 0 60 -2 54 -20 -3 -11 -9 -32
-12 -47 -8 -43 -11 -58 -13 -58 -1 0 -4 -13 -6 -29 -3 -16 -21 -90 -40 -165
-19 -75 -36 -143 -38 -151 -39 -155 -203 -657 -246 -755 -8 -19 -50 -130 -110
-295 -16 -41 -42 -111 -59 -155 -17 -44 -31 -85 -31 -92 0 -17 32 -16 74 1 65
27 170 43 341 51 87 4 122 17 136 51 5 15 21 75 35 133 14 58 39 162 56 231
33 138 36 150 43 183 2 12 16 72 31 132 14 61 28 118 30 128 2 10 5 26 8 35 3
9 8 31 11 47 8 38 13 60 15 60 1 0 3 8 5 19 2 10 9 39 15 65 6 25 12 55 14 66
2 11 11 47 19 80 9 33 18 71 21 85 16 84 90 386 96 394 8 8 1330 15 1487 8
l71 -4 -8 -28 c-4 -16 -6 -31 -2 -34 3 -3 0 -6 -7 -6 -7 0 -9 -4 -6 -10 3 -5
1 -27 -5 -49 -6 -22 -13 -59 -16 -83 -3 -24 -8 -50 -11 -58 -3 -8 -7 -28 -9
-45 -3 -16 -10 -55 -16 -85 -6 -30 -12 -68 -14 -85 -1 -16 -9 -70 -18 -120 -8
-49 -18 -110 -21 -135 -3 -25 -8 -56 -11 -70 -2 -14 -7 -47 -9 -75 -3 -27 -8
-68 -11 -90 -9 -59 -15 -138 -18 -245 -5 -161 36 -267 139 -357 88 -76 250
-153 380 -178 17 -3 44 -9 60 -12 17 -4 102 -7 190 -7 168 0 280 17 427 65
239 79 396 216 399 352 2 82 4 80 -38 54 -196 -119 -410 -175 -688 -177 -269
-3 -349 54 -372 265 -15 137 -3 523 22 711 3 23 8 68 11 100 2 33 9 86 14 119
5 33 12 78 15 100 2 22 7 51 10 65 2 13 7 42 10 65 3 22 8 47 10 55 2 8 7 31
10 50 9 55 28 151 51 250 3 14 8 39 10 55 3 17 19 82 35 145 16 63 31 124 34
135 2 11 16 61 30 110 14 50 27 97 29 105 21 86 194 606 225 675 5 11 17 43
27 70 35 98 124 263 164 303 66 65 169 121 351 190 135 52 246 81 328 86 16 1
25 9 27 21 4 27 -16 105 -33 132 -29 44 -120 53 -268 26z"/>
<path d="M7474 5226 c-22 -12 -18 -29 14 -64 29 -32 83 -168 95 -240 12 -71
14 -227 4 -312 -3 -27 -19 -106 -32 -160 -1 -3 -5 -21 -9 -40 -5 -19 -11 -39
-14 -45 -4 -5 -7 -14 -9 -20 -11 -52 -145 -343 -175 -380 -14 -17 -88 -135
-88 -140 0 -12 -225 -316 -275 -371 -5 -6 -23 -28 -40 -49 -16 -21 -32 -41
-35 -44 -3 -3 -12 -11 -21 -18 -13 -11 -16 -7 -18 30 -2 23 -4 56 -6 72 -8 93
-17 207 -20 260 -2 33 -5 60 -5 60 -1 0 -3 25 -5 55 -4 60 -12 147 -21 225 -3
28 -7 73 -9 100 -12 142 -29 272 -50 375 -3 14 -7 39 -9 55 -3 17 -7 37 -10
45 -3 8 -8 33 -11 55 -16 111 -72 288 -112 356 -37 65 -107 121 -169 138 -42
11 -56 8 -149 -34 -63 -28 -266 -79 -355 -89 -19 -2 -38 -4 -41 -5 -18 -3 -45
-101 -40 -147 0 -6 20 -12 44 -13 159 -5 237 -19 237 -42 0 -5 6 -9 13 -9 35
0 106 -177 141 -350 3 -14 6 -29 7 -35 1 -5 6 -26 11 -45 9 -36 10 -40 33
-155 12 -63 42 -229 50 -280 8 -53 17 -101 20 -115 2 -8 7 -37 10 -65 7 -58
13 -100 20 -135 2 -14 7 -45 9 -70 3 -25 7 -61 10 -80 3 -19 8 -62 12 -95 31
-287 35 -380 18 -413 -8 -15 -14 -30 -14 -34 0 -5 73 -8 162 -8 l161 0 95 93
c353 345 742 742 742 757 0 5 4 10 9 12 13 5 111 126 111 138 0 5 4 10 9 10
16 0 169 239 218 337 43 90 97 258 88 274 -3 4 -2 10 2 12 8 5 8 147 0 177 -2
8 -7 31 -11 50 -38 162 -199 297 -478 400 -73 27 -89 29 -114 16z"/>
<path d="M3178 4650 c-152 -3 -279 -7 -281 -10 -3 -3 -7 -18 -10 -35 -3 -16
-13 -59 -22 -95 -8 -36 -18 -76 -21 -90 -3 -14 -10 -43 -16 -65 -5 -22 -12
-49 -14 -60 -2 -11 -6 -32 -10 -47 -3 -15 -5 -29 -4 -30 1 -2 -3 -16 -9 -31
-6 -15 -13 -42 -16 -60 -3 -18 -17 -77 -30 -132 -24 -97 -60 -254 -71 -305 -6
-30 -61 -258 -114 -477 -22 -89 -40 -167 -40 -173 0 -23 -47 -80 -75 -90 -16
-6 -70 -13 -120 -16 -49 -3 -99 -7 -110 -8 -15 -2 -26 -20 -43 -67 -13 -35
-42 -113 -64 -174 -22 -60 -51 -139 -64 -175 -13 -36 -28 -74 -33 -85 -5 -11
-33 -83 -61 -160 -29 -77 -56 -149 -61 -160 -4 -11 -24 -63 -43 -115 -47 -127
-42 -130 119 -76 119 40 148 45 385 60 265 17 275 21 303 106 10 30 25 84 33
120 8 36 16 72 18 80 4 13 20 80 31 130 7 28 56 235 81 340 14 58 27 112 29
120 2 8 8 34 14 57 6 22 15 61 20 84 5 24 23 105 41 179 18 74 34 144 35 155
2 11 4 20 5 20 1 0 3 7 5 15 2 8 13 58 25 110 12 52 28 122 36 155 7 33 27
119 44 190 17 72 33 139 35 150 3 11 11 47 20 80 8 33 17 71 19 85 2 14 5 25
6 25 2 0 8 23 15 60 3 17 8 41 12 55 9 37 9 36 34 145 12 55 26 104 31 110 5
5 151 10 362 11 195 1 359 5 365 8 6 4 11 4 11 -1 0 -4 19 -7 42 -5 24 1 50 3
58 2 20 0 50 1 80 3 14 1 37 -1 53 -5 15 -3 27 -3 27 2 0 5 13 5 30 0 17 -5
32 -5 35 0 3 5 12 7 19 4 9 -4 15 8 20 37 4 23 5 43 3 45 -6 7 -874 9 -1169 4z"/>
</g>
</svg>
