<svg id="visual" viewBox="0 0 900 600" width="900" height="600" xmlns="http://www.w3.org/2000/svg" xmlns:xlink="http://www.w3.org/1999/xlink" version="1.1"><path d="M0 71L15 71.3C30 71.7 60 72.3 90 69.7C120 67 150 61 180 56.3C210 51.7 240 48.3 270 49.7C300 51 330 57 360 61.2C390 65.3 420 67.7 450 64.8C480 62 510 54 540 54.7C570 55.3 600 64.7 630 66.3C660 68 690 62 720 61.8C750 61.7 780 67.3 810 69.2C840 71 870 69 885 68L900 67L900 0L885 0C870 0 840 0 810 0C780 0 750 0 720 0C690 0 660 0 630 0C600 0 570 0 540 0C510 0 480 0 450 0C420 0 390 0 360 0C330 0 300 0 270 0C240 0 210 0 180 0C150 0 120 0 90 0C60 0 30 0 15 0L0 0Z" fill="#000000" stroke-linecap="round" stroke-linejoin="miter"></path></svg>